<svg width="20" height="20" viewBox="0 0 20 20" fill="none" xmlns="http://www.w3.org/2000/svg">
<g clip-path="url(#clip0_1_204)">
<path d="M4.16667 0H15.8333C16.938 0.00132321 17.997 0.440735 18.7782 1.22185C19.5593 2.00296 19.9987 3.062 20 4.16667V15.8333C19.9987 16.938 19.5593 17.997 18.7782 18.7782C17.997 19.5593 16.938 19.9987 15.8333 20H4.16667C3.062 19.9987 2.00296 19.5593 1.22185 18.7782C0.440735 17.997 0.0013237 16.938 0 15.8333V4.16667C0.0013237 3.062 0.440735 2.00296 1.22185 1.22185C2.00296 0.440735 3.062 0.00132321 4.16667 0V0ZM14.1667 18.3333V17.5C14.1667 16.3949 13.7277 15.3351 12.9463 14.5537C12.1649 13.7723 11.1051 13.3333 10 13.3333C8.89493 13.3333 7.83512 13.7723 7.05372 14.5537C6.27232 15.3351 5.83333 16.3949 5.83333 17.5V18.3333H14.1667ZM1.66667 15.8333C1.66667 16.4964 1.93006 17.1323 2.3989 17.6011C2.86774 18.0699 3.50363 18.3333 4.16667 18.3333V17.5C4.16667 15.9529 4.78125 14.4692 5.87521 13.3752C6.96917 12.2812 8.4529 11.6667 10 11.6667C11.5471 11.6667 13.0308 12.2812 14.1248 13.3752C15.2188 14.4692 15.8333 15.9529 15.8333 17.5V18.3333C16.4964 18.3333 17.1323 18.0699 17.6011 17.6011C18.0699 17.1323 18.3333 16.4964 18.3333 15.8333V4.16667C18.3333 3.50363 18.0699 2.86774 17.6011 2.3989C17.1323 1.93006 16.4964 1.66667 15.8333 1.66667H4.16667C3.50363 1.66667 2.86774 1.93006 2.3989 2.3989C1.93006 2.86774 1.66667 3.50363 1.66667 4.16667V15.8333Z" fill="#3B82F6"/>
<path d="M9.99991 3.33337C10.6592 3.33337 11.3037 3.52887 11.8518 3.89514C12.4 4.26141 12.8272 4.78201 13.0795 5.39109C13.3318 6.00018 13.3978 6.6704 13.2692 7.317C13.1406 7.96361 12.8231 8.55755 12.3569 9.02372C11.8908 9.4899 11.2968 9.80737 10.6502 9.93598C10.0036 10.0646 9.33339 9.99859 8.7243 9.7463C8.11521 9.49401 7.59461 9.06676 7.22834 8.5186C6.86207 7.97044 6.66657 7.32597 6.66657 6.6667C6.66657 5.78265 7.01776 4.9348 7.64289 4.30968C8.26801 3.68456 9.11586 3.33337 9.99991 3.33337ZM9.99991 8.33337C10.3295 8.33337 10.6518 8.23562 10.9259 8.05248C11.1999 7.86935 11.4136 7.60905 11.5397 7.30451C11.6659 6.99996 11.6989 6.66485 11.6346 6.34155C11.5702 6.01825 11.4115 5.72128 11.1784 5.48819C10.9453 5.25511 10.6484 5.09637 10.3251 5.03206C10.0018 4.96775 9.66665 5.00076 9.36211 5.12691C9.05756 5.25305 8.79726 5.46667 8.61413 5.74075C8.43099 6.01484 8.33324 6.33707 8.33324 6.6667C8.33324 7.10873 8.50884 7.53265 8.8214 7.84521C9.13396 8.15777 9.55788 8.33337 9.99991 8.33337Z" fill="#3B82F6"/>
</g>
<defs>
<clipPath id="clip0_1_204">
<rect width="20" height="20" fill="white" transform="matrix(-1 0 0 1 20 0)"/>
</clipPath>
</defs>
</svg>
