<svg width="73" height="73" viewBox="0 0 73 73" fill="none" xmlns="http://www.w3.org/2000/svg">
<g clip-path="url(#clip0_1_65)">
<path d="M15.2083 0H57.7917C61.8237 0.00482973 65.6892 1.60868 68.5402 4.45975C71.3913 7.31082 72.9952 11.1763 73 15.2083V57.7917C72.9952 61.8237 71.3913 65.6892 68.5402 68.5403C65.6892 71.3913 61.8237 72.9952 57.7917 73H15.2083C11.1763 72.9952 7.31081 71.3913 4.45975 68.5403C1.60868 65.6892 0.00482941 61.8237 0 57.7917V15.2083C0.00482941 11.1763 1.60868 7.31082 4.45975 4.45975C7.31081 1.60868 11.1763 0.00482973 15.2083 0V0ZM51.7083 66.9167V63.875C51.7083 59.8415 50.106 55.9732 47.2539 53.1211C44.4018 50.269 40.5335 48.6667 36.5 48.6667C32.4665 48.6667 28.5982 50.269 25.7461 53.1211C22.894 55.9732 21.2917 59.8415 21.2917 63.875V66.9167H51.7083ZM6.08333 57.7917C6.08333 60.2118 7.04471 62.5327 8.75598 64.244C10.4673 65.9553 12.7882 66.9167 15.2083 66.9167V63.875C15.2083 58.2281 17.4516 52.8125 21.4445 48.8195C25.4375 44.8266 30.8531 42.5833 36.5 42.5833C42.1469 42.5833 47.5625 44.8266 51.5555 48.8195C55.5484 52.8125 57.7917 58.2281 57.7917 63.875V66.9167C60.2118 66.9167 62.5327 65.9553 64.244 64.244C65.9553 62.5327 66.9167 60.2118 66.9167 57.7917V15.2083C66.9167 12.7882 65.9553 10.4673 64.244 8.75598C62.5327 7.04471 60.2118 6.08333 57.7917 6.08333H15.2083C12.7882 6.08333 10.4673 7.04471 8.75598 8.75598C7.04471 10.4673 6.08333 12.7882 6.08333 15.2083V57.7917Z" fill="#857E7F"/>
<path d="M36.5 12.1667C38.9063 12.1667 41.2586 12.8802 43.2594 14.2171C45.2602 15.554 46.8197 17.4542 47.7405 19.6774C48.6614 21.9005 48.9024 24.3468 48.4329 26.7069C47.9634 29.067 46.8047 31.2349 45.1031 32.9365C43.4016 34.638 41.2337 35.7968 38.8736 36.2662C36.5135 36.7357 34.0672 36.4947 31.844 35.5739C29.6208 34.653 27.7207 33.0936 26.3838 31.0928C25.0469 29.092 24.3333 26.7397 24.3333 24.3333C24.3333 21.1065 25.6152 18.0119 27.8969 15.7302C30.1785 13.4485 33.2732 12.1667 36.5 12.1667ZM36.5 30.4167C37.7032 30.4167 38.8793 30.0599 39.8797 29.3914C40.8801 28.723 41.6598 27.7729 42.1203 26.6613C42.5807 25.5497 42.7012 24.3266 42.4664 23.1465C42.2317 21.9665 41.6523 20.8825 40.8016 20.0318C39.9508 19.181 38.8669 18.6016 37.6868 18.3669C36.5067 18.1322 35.2836 18.2526 34.172 18.7131C33.0604 19.1735 32.1103 19.9532 31.4419 20.9536C30.7734 21.954 30.4167 23.1302 30.4167 24.3333C30.4167 25.9467 31.0576 27.4941 32.1984 28.6349C33.3393 29.7757 34.8866 30.4167 36.5 30.4167Z" fill="#857E7F"/>
</g>
<defs>
<clipPath id="clip0_1_65">
<rect width="73" height="73" fill="white" transform="matrix(-1 0 0 1 73 0)"/>
</clipPath>
</defs>
</svg>
